<mxfile host="app.diagrams.net" modified="2024-04-29T21:32:07.110Z" agent="Mozilla/5.0 (X11; Linux x86_64) AppleWebKit/537.36 (KHTML, like Gecko) Chrome/123.0.0.0 Safari/537.36" etag="pgd6n9a8wnoudaeV6jbH" version="24.3.1" type="device">
  <diagram name="Page-1" id="osSLasVawp9SUQWtBFAF">
    <mxGraphModel dx="2164" dy="1209" grid="0" gridSize="10" guides="1" tooltips="1" connect="1" arrows="1" fold="1" page="0" pageScale="1" pageWidth="827" pageHeight="1169" math="0" shadow="0">
      <root>
        <mxCell id="0" />
        <mxCell id="1" parent="0" />
        <mxCell id="7p5ivGtsigJs7fV0VTaL-1" value="&lt;b&gt;&lt;font style=&quot;font-size: 20px;&quot;&gt;Client&lt;/font&gt;&lt;/b&gt;" style="text;html=1;align=center;verticalAlign=middle;whiteSpace=wrap;rounded=0;fontSize=16;" vertex="1" parent="1">
          <mxGeometry x="-605" y="-119" width="115" height="30" as="geometry" />
        </mxCell>
        <mxCell id="7p5ivGtsigJs7fV0VTaL-2" value="" style="endArrow=none;html=1;rounded=0;fontSize=12;startSize=8;endSize=8;curved=1;" edge="1" parent="1">
          <mxGeometry width="50" height="50" relative="1" as="geometry">
            <mxPoint x="-556" y="240" as="sourcePoint" />
            <mxPoint x="-559" y="-82" as="targetPoint" />
          </mxGeometry>
        </mxCell>
        <mxCell id="7p5ivGtsigJs7fV0VTaL-3" value="&lt;b&gt;&lt;font style=&quot;font-size: 20px;&quot;&gt;Server&lt;/font&gt;&lt;/b&gt;" style="text;html=1;align=center;verticalAlign=middle;whiteSpace=wrap;rounded=0;fontSize=16;" vertex="1" parent="1">
          <mxGeometry x="-412" y="-119" width="115" height="30" as="geometry" />
        </mxCell>
        <mxCell id="7p5ivGtsigJs7fV0VTaL-4" value="" style="endArrow=none;html=1;rounded=0;fontSize=12;startSize=8;endSize=8;curved=1;" edge="1" parent="1">
          <mxGeometry width="50" height="50" relative="1" as="geometry">
            <mxPoint x="-355" y="240" as="sourcePoint" />
            <mxPoint x="-358" y="-81" as="targetPoint" />
          </mxGeometry>
        </mxCell>
        <mxCell id="7p5ivGtsigJs7fV0VTaL-5" value="" style="endArrow=classic;html=1;rounded=0;fontSize=12;startSize=8;endSize=8;curved=1;dashed=1;" edge="1" parent="1">
          <mxGeometry width="50" height="50" relative="1" as="geometry">
            <mxPoint x="-559" y="-51" as="sourcePoint" />
            <mxPoint x="-359" y="-51" as="targetPoint" />
          </mxGeometry>
        </mxCell>
        <mxCell id="7p5ivGtsigJs7fV0VTaL-6" value="SYN" style="text;html=1;align=center;verticalAlign=middle;whiteSpace=wrap;rounded=0;fontSize=16;" vertex="1" parent="1">
          <mxGeometry x="-517" y="-77" width="101" height="30" as="geometry" />
        </mxCell>
        <mxCell id="7p5ivGtsigJs7fV0VTaL-8" value="" style="endArrow=classic;html=1;rounded=0;fontSize=12;startSize=8;endSize=8;curved=1;dashed=1;" edge="1" parent="1">
          <mxGeometry width="50" height="50" relative="1" as="geometry">
            <mxPoint x="-357" y="8" as="sourcePoint" />
            <mxPoint x="-559" y="8" as="targetPoint" />
          </mxGeometry>
        </mxCell>
        <mxCell id="7p5ivGtsigJs7fV0VTaL-9" value="ACK" style="text;html=1;align=center;verticalAlign=middle;whiteSpace=wrap;rounded=0;fontSize=16;" vertex="1" parent="1">
          <mxGeometry x="-539" y="-21" width="153" height="30" as="geometry" />
        </mxCell>
        <mxCell id="7p5ivGtsigJs7fV0VTaL-11" value="DATA" style="text;html=1;align=center;verticalAlign=middle;whiteSpace=wrap;rounded=0;fontSize=16;" vertex="1" parent="1">
          <mxGeometry x="-513" y="38" width="101" height="30" as="geometry" />
        </mxCell>
        <mxCell id="7p5ivGtsigJs7fV0VTaL-12" value="" style="endArrow=classic;html=1;rounded=0;fontSize=12;startSize=8;endSize=8;curved=1;dashed=1;" edge="1" parent="1">
          <mxGeometry width="50" height="50" relative="1" as="geometry">
            <mxPoint x="-555" y="65" as="sourcePoint" />
            <mxPoint x="-355" y="65" as="targetPoint" />
          </mxGeometry>
        </mxCell>
        <mxCell id="7p5ivGtsigJs7fV0VTaL-13" value="ACK" style="text;html=1;align=center;verticalAlign=middle;whiteSpace=wrap;rounded=0;fontSize=16;" vertex="1" parent="1">
          <mxGeometry x="-539" y="80" width="153" height="30" as="geometry" />
        </mxCell>
        <mxCell id="7p5ivGtsigJs7fV0VTaL-14" value="" style="endArrow=classic;html=1;rounded=0;fontSize=12;startSize=8;endSize=8;curved=1;dashed=1;" edge="1" parent="1">
          <mxGeometry width="50" height="50" relative="1" as="geometry">
            <mxPoint x="-353" y="106" as="sourcePoint" />
            <mxPoint x="-562" y="106" as="targetPoint" />
          </mxGeometry>
        </mxCell>
        <mxCell id="7p5ivGtsigJs7fV0VTaL-15" value="" style="endArrow=classic;html=1;rounded=0;fontSize=12;startSize=8;endSize=8;curved=1;dashed=1;" edge="1" parent="1">
          <mxGeometry width="50" height="50" relative="1" as="geometry">
            <mxPoint x="-557" y="148" as="sourcePoint" />
            <mxPoint x="-357" y="148" as="targetPoint" />
          </mxGeometry>
        </mxCell>
        <mxCell id="7p5ivGtsigJs7fV0VTaL-16" value="FIN" style="text;html=1;align=center;verticalAlign=middle;whiteSpace=wrap;rounded=0;fontSize=16;" vertex="1" parent="1">
          <mxGeometry x="-507" y="122" width="101" height="30" as="geometry" />
        </mxCell>
        <mxCell id="7p5ivGtsigJs7fV0VTaL-17" value="" style="endArrow=classic;html=1;rounded=0;fontSize=12;startSize=8;endSize=8;curved=1;dashed=1;" edge="1" parent="1">
          <mxGeometry width="50" height="50" relative="1" as="geometry">
            <mxPoint x="-358" y="193" as="sourcePoint" />
            <mxPoint x="-558" y="195" as="targetPoint" />
          </mxGeometry>
        </mxCell>
        <mxCell id="7p5ivGtsigJs7fV0VTaL-18" value="CLS" style="text;html=1;align=center;verticalAlign=middle;whiteSpace=wrap;rounded=0;fontSize=16;" vertex="1" parent="1">
          <mxGeometry x="-504" y="169" width="101" height="30" as="geometry" />
        </mxCell>
      </root>
    </mxGraphModel>
  </diagram>
</mxfile>
